<?xml version="1.0" encoding="utf-8"?>
<!-- Generator: Adobe Illustrator 23.1.0, SVG Export Plug-In . SVG Version: 6.00 Build 0)  -->
<svg version="1.1" id="Layer_1" xmlns="http://www.w3.org/2000/svg" xmlns:xlink="http://www.w3.org/1999/xlink" x="0px" y="0px"
	 viewBox="0 0 2000 2000" style="enable-background:new 0 0 2000 2000;" xml:space="preserve">
<g id="XMLID_365_">
	<g id="XMLID_637_">
		<ellipse id="XMLID_1452_" cx="1441.8" cy="844.8" rx="30.4" ry="28.1"/>
		<path id="XMLID_1449_" d="M1452.2,840.9c9.7-26.2,37.9-54.4,83.8-84c34.1-22,65.8-36.5,66.1-36.6l1.5,2.8
			c-0.3,0.1-31.8,14.6-65.7,36.4c-31.1,20.1-70.7,50.7-82.5,82.4L1452.2,840.9z"/>
		<path id="XMLID_1446_" d="M1445.1,842.1c-7.1-21-7.6-44.2-1.5-69.1c4.8-19.8,13.9-40.7,26.8-62.1c22-36.3,48.2-61.9,48.4-62.2
			l3.1,2.8c-0.3,0.3-26.1,25.5-47.8,61.4c-20,33-40.5,82-24.9,128L1445.1,842.1z"/>
		<path id="XMLID_1443_" d="M1457.8,847.6l1.6-3.7c53.7,19.3,99.4,16.8,128.4,11.3c31.4-5.9,50.3-16.5,50.5-16.6l2.3,3.4
			c-0.8,0.4-19.6,11-51.7,17.1C1559.3,864.7,1512.5,867.3,1457.8,847.6z"/>
		<path id="XMLID_1440_" d="M1458.8,865.1c-14.1-10.2-26.2-21.5-36.3-33.8l3.5-2.4c38.9,47.5,102.7,70.7,149.5,81.9
			c50.8,12.1,92.8,12.9,93.2,12.9l-0.1,4c-0.4,0-43-0.8-94.2-13c-30.1-7.2-57.4-16.8-81-28.7
			C1480.9,879.7,1469.3,872.7,1458.8,865.1z"/>
		<path id="XMLID_1437_" d="M1447.5,837.6c0.2-29.2,17.8-57.4,32.4-76c15.8-20,31.8-33.4,32-33.5l2.9,3
			c-0.6,0.5-62.5,52.7-62.9,106.6L1447.5,837.6z"/>
		<path id="XMLID_1434_" d="M1422.1,841.9l0.2-4c58.2,3.1,118.4-50.7,119-51.3l3,2.9c-0.2,0.1-15.6,14-38.2,27.4
			C1485.2,829.2,1453.6,843.5,1422.1,841.9z"/>
		<path id="XMLID_1431_" d="M1455,848.9L1455,848.9l2.7-3.2l0,0c0.9,0.7,66.9,47.9,124.3,39.1l0.7,4c-31.1,4.8-64.2-6.3-86.5-16.5
			C1472.3,861.4,1455.3,849.2,1455,848.9z"/>
		<path id="XMLID_1425_" d="M1450.9,847v-4c58-0.2,108-18.9,139.9-34.6c34.5-17,55.6-34.2,55.8-34.4l2.9,3
			c-0.2,0.2-21.6,17.6-56.5,34.9C1560.6,827.8,1509.8,846.8,1450.9,847z"/>
		<path id="XMLID_1421_" d="M1434.8,835.8c-38.4-47.4-46.8-95.1-46.9-126.8c-0.2-34.4,8.5-57.2,8.9-58.2l4.1,1.4
			c-0.1,0.2-8.9,23.2-8.7,57c0.2,31.1,8.4,77.8,46.1,124.3L1434.8,835.8z"/>
		<path id="XMLID_1404_" d="M1454.5,852c-35.2-45.2-36.5-88.8-31.5-117.4c5.5-31,19.2-50.9,19.8-51.7l3.6,2.2
			c-0.1,0.2-13.8,20.2-19.2,50.4c-4.9,27.8-3.6,70.1,30.7,114.2L1454.5,852z"/>
		<path id="XMLID_1398_" d="M1356.4,801.9c-24.5-17.7-41.9-34.5-52-50.3c-14.5-22.6-8-34.6-7.8-35.1l3.8,1.8c0,0.1-5.6,11,8.1,32
			c12.9,19.7,45.6,52.2,128.5,95.6l-2.1,3.5C1403.7,832.9,1377.5,817.1,1356.4,801.9z"/>
		<path id="XMLID_1184_" d="M1405.6,818.9c-42-30.4-67-64.1-74.4-100.5c-10.2-50,17.5-87.3,17.8-87.7l3.5,2.3
			c-0.3,0.4-27,36.4-17.1,84.8c8.4,41.2,40.2,79,94.4,112.5l-2.4,3.3C1419.8,828.7,1412.5,823.8,1405.6,818.9z"/>
		<path id="XMLID_1156_" d="M1501.2,949.3c-0.8-0.6-1.6-1.2-2.4-1.8c-23.7-17.8-53.1-50.7-58.3-106.1l4.3-0.3
			c5.1,54,33.6,86,56.7,103.4c25,18.8,49,24.8,49.2,24.9l-1.1,3.9C1548.6,973,1525.9,967.3,1501.2,949.3z"/>
		<path id="XMLID_1107_" d="M1293.5,812.1c-8.4-6.1-11.5-10.5-11.7-10.8l3.6-2.2l-1.8,1.1l1.8-1.1c0.1,0.1,7.3,10.1,29.3,20.6
			c20.4,9.7,57.8,21.8,120.6,24.2l-0.2,4c-64-2.5-102.1-14.9-122.9-24.9C1304.2,819.2,1298.1,815.4,1293.5,812.1z"/>
		<path id="XMLID_907_" d="M1414.7,676c7.1-8.4,5.5-20.5-3.6-27.1s-22.2-5.1-29.3,3.3s-5.5,20.5,3.6,27.1
			C1394.5,685.9,1407.6,684.4,1414.7,676z"/>
		<path id="XMLID_853_" d="M1653.5,850.5c7.1-8.4,5.5-20.5-3.6-27.1s-22.2-5.1-29.3,3.3c-7.1,8.4-5.5,20.5,3.6,27.1
			C1633.3,860.4,1646.4,858.9,1653.5,850.5z"/>
		<ellipse id="XMLID_805_" cx="1519.6" cy="649.6" rx="24.7" ry="22.9"/>
		<ellipse id="XMLID_802_" cx="1720.4" cy="629.5" rx="24.7" ry="22.9"/>
		<path id="XMLID_799_" d="M1664.4,787.4c7.1-8.4,5.5-20.5-3.6-27.1s-22.2-5.1-29.3,3.3c-7.1,8.4-5.5,20.5,3.6,27.1
			S1657.3,795.8,1664.4,787.4z"/>
		<path id="XMLID_796_" d="M1709.2,718.7c7.1-8.4,5.5-20.5-3.6-27.1s-22.2-5.1-29.3,3.3s-5.5,20.5,3.6,27.1
			C1689,728.6,1702.1,727.1,1709.2,718.7z"/>
		<path id="XMLID_793_" d="M1894.3,629c7.1-8.4,5.5-20.5-3.6-27.1s-22.2-5.1-29.3,3.3c-7.1,8.4-5.5,20.5,3.6,27.1
			C1874.1,638.9,1887.2,637.4,1894.3,629z"/>
		<path id="XMLID_790_" d="M1456.7,699.9c6.3-7.4,4.9-18.1-3.2-23.9c-8-5.8-19.6-4.5-25.9,2.9s-4.9,18.1,3.2,23.9
			C1438.9,708.6,1450.4,707.3,1456.7,699.9z"/>
		<path id="XMLID_787_" d="M1312.4,724.6c5-8.2,1.9-18.6-7-23.2c-8.9-4.6-20.1-1.7-25.1,6.5s-1.9,18.6,7,23.2
			C1296.2,735.6,1307.4,732.7,1312.4,724.6z"/>
		<path id="XMLID_784_" d="M1705.1,938.4c7.8-11.5,4.1-26.8-8.4-34s-28.9-3.7-36.8,7.8c-7.8,11.5-4.1,26.8,8.4,34
			C1680.8,953.5,1697.3,950,1705.1,938.4z"/>
		<path id="XMLID_781_" d="M1622.6,730.9c5.2-9.6,1.1-21.2-9.2-26.1c-10.3-4.8-23-1-28.2,8.5c-5.2,9.6-1.1,21.2,9.2,26.1
			C1604.8,744.3,1617.4,740.5,1622.6,730.9z"/>
		<ellipse id="XMLID_778_" cx="1353.6" cy="623.1" rx="26.7" ry="24.7"/>
		<ellipse id="XMLID_775_" cx="1945.4" cy="534.2" rx="26.7" ry="24.7"/>
		<path id="XMLID_758_" d="M1550.7,793.7c3.4-4,2.6-9.7-1.7-12.9c-4.3-3.1-10.5-2.4-13.9,1.6s-2.6,9.7,1.7,12.9
			C1541.1,798.4,1547.3,797.7,1550.7,793.7z"/>
		<path id="XMLID_755_" d="M1643.7,681.6c3.4-4,2.6-9.7-1.7-12.9c-4.3-3.1-10.5-2.4-13.9,1.6s-2.6,9.7,1.7,12.9
			C1634.1,686.3,1640.4,685.6,1643.7,681.6z"/>
		<path id="XMLID_752_" d="M1787.4,686.8c3.4-4,2.6-9.7-1.7-12.9c-4.3-3.1-10.5-2.4-13.9,1.6s-2.6,9.7,1.7,12.9
			C1777.8,691.5,1784.1,690.8,1787.4,686.8z"/>
		<path id="XMLID_749_" d="M1820.7,629.8c3.4-4,2.6-9.7-1.7-12.9c-4.3-3.1-10.5-2.4-13.9,1.6s-2.6,9.7,1.7,12.9
			C1811.1,634.5,1817.3,633.8,1820.7,629.8z"/>
		<path id="XMLID_746_" d="M1937.8,607.5c3.4-4,2.6-9.7-1.7-12.9c-4.3-3.1-10.5-2.4-13.9,1.6s-2.6,9.7,1.7,12.9
			C1928.2,612.2,1934.4,611.5,1937.8,607.5z"/>
		<path id="XMLID_743_" d="M1473.3,962.5c-0.1-0.2-12.1-16.7-22.2-39.7c-9.4-21.3-18.9-52.6-11.5-81l4.2,0.9
			c-13.7,52.4,32.6,116.9,33.1,117.5L1473.3,962.5z"/>
		<path id="XMLID_740_" d="M1467.7,967.5c3.6,3.8,9.9,4.1,14,0.8c4.1-3.4,4.5-9.2,0.8-12.9s-9.9-4.1-14-0.8
			C1464.5,957.9,1464.1,963.7,1467.7,967.5z"/>
		<path id="XMLID_737_" d="M1292.3,852.7l1.5-3.8c0.8,0.3,79.6,26.4,131.3,1.4l2,3.6c-28,13.5-63.2,12.4-87.8,9.2
			C1312.8,859.6,1292.5,852.8,1292.3,852.7z"/>
		<path id="XMLID_734_" d="M1288.5,859c-4.8-2.3-6.7-7.9-4.2-12.4s8.5-6.2,13.4-3.9c4.8,2.3,6.7,7.9,4.2,12.4
			C1299.3,859.6,1293.3,861.3,1288.5,859z"/>
		<path id="XMLID_731_" d="M1522.9,736.1c4.2-5.3,2.9-12.7-2.8-16.6c-5.7-3.9-13.7-2.7-17.9,2.6c-4.2,5.3-2.9,12.7,2.8,16.6
			C1510.7,742.5,1518.7,741.3,1522.9,736.1z"/>
		<path id="XMLID_728_" d="M1592.4,894.1c4.4-5.2,3.4-12.6-2.2-16.6s-13.6-3.1-18,2c-4.4,5.2-3.4,12.6,2.2,16.6
			C1580,900.2,1588.1,899.3,1592.4,894.1z"/>
		<path id="XMLID_708_" d="M1509.4,931.1c-16.2-11.7-29.2-26.8-38.3-39.4c-14.9-20.6-23.1-39.1-23.1-39.3l4-1.5
			c0.3,0.7,32.1,72.3,86.8,91.2l-1.5,3.8C1527.1,942.4,1517.8,937.2,1509.4,931.1z"/>
		<path id="XMLID_692_" d="M1542.8,954.9c6.6-2.5,9.7-9.4,7.1-15.4c-2.7-6.1-10.1-9-16.7-6.5s-9.7,9.4-7.1,15.4
			S1536.2,957.4,1542.8,954.9z"/>
		<path id="XMLID_659_" d="M1557.9,981c4.8-4.8,4.6-12.3-0.5-16.7c-5.1-4.5-13.3-4.3-18.1,0.5c-4.8,4.8-4.6,12.3,0.5,16.7
			S1553,985.8,1557.9,981z"/>
		<path id="XMLID_648_" d="M1294.8,806c3.4-5.7,1.2-12.9-5-16.1c-6.2-3.2-14-1.1-17.4,4.6c-3.4,5.7-1.2,12.9,5,16.1
			C1283.6,813.8,1291.4,811.7,1294.8,806z"/>
		<path d="M1439.8,841c-66.7,75.2-122.9,158.3-169.1,246c-48.9,92.8-89.3,191.4-117.1,292.4c1.7,3.7,2.7,7.7,2.9,12
			c0.1,2.4-0.1,4.7-0.7,7c0.5,2.1,0.8,4.2,0.7,6.5c0,7.3-3.1,15-8.2,20.3l27.6,5.4c23.1-117.7,63.9-233.5,116.5-341.8
			c41.8-86.1,93.3-168.1,154.9-242.9L1439.8,841z"/>
	</g>
</g>
<g>
	<path d="M358.7,1540.2c0,4.4-1.3,9.6-3.8,15.7c-0.6,1.6-1.7,3.2-3.2,5s-3.1,3.5-4.7,5.2s-3.3,3.2-4.8,4.6c-1.6,1.3-2.7,2.4-3.5,3.1
		c-4,3.8-9.2,8.1-15.5,12.8c-6.3,4.7-13.3,9.8-21.1,15.1c-7.7,5.3-15.9,10.7-24.5,16.1s-17.3,10.8-25.9,16s-17,10.2-25.2,14.8
		c-8.1,4.7-15.6,8.8-22.3,12.3c-4.9,2.5-9.5,5.4-13.9,8.6s-8.7,6.1-12.9,8.9s-8.4,5.1-12.7,6.9s-8.8,2.8-13.5,2.8
		c-2.8,0-5.5-0.4-8.1-1.2c-2.6-0.8-5-2-7-3.7c-2.1-1.7-3.7-3.9-5-6.5s-1.9-5.8-1.9-9.4c0-2,0.6-3.8,1.7-5.5c1.2-1.7,2.6-3.2,4.5-4.6
		c1.8-1.3,3.8-2.6,6-3.7s4.3-2.1,6.4-3c2.2-1,4.8-2,7.8-3.1s6-2.1,9-3.2s6-2.2,8.8-3.3c2.9-1.1,5.3-2.3,7.4-3.4
		c3.9-2.4,7.5-5.4,10.9-9.1s6.6-7.7,9.5-12.1s5.7-8.9,8.2-13.7c2.6-4.7,4.9-9.3,7.1-13.7c1.5-3,2.9-6.3,4.2-10s2.5-7.3,3.6-11
		c1-3.7,1.8-7.2,2.4-10.5c0.5-3.3,0.8-6.1,0.8-8.4c0-9.8-1.8-17.5-5.5-23.3c-3.6-5.8-8.2-8.7-13.7-8.7c-3.4,0-7.3,1.3-11.8,3.9
		c-4.4,2.6-8.9,5.8-13.3,9.4c-4.4,3.7-8.6,7.5-12.4,11.6c-3.8,4-6.9,7.5-9.2,10.3c-5.6,6.9-10.9,14.5-15.8,22.6
		c-4.9,8.1-9.6,16.5-14,25c-4.4,8.6-8.5,17.1-12.4,25.8c-3.9,8.6-7.5,16.9-10.8,24.8c-1.5,6.6-2.9,14-4.3,22.1s-2.5,16.9-3.2,26.5
		c-1.3,19.1-2.3,36.1-3,51.1s-2,28.7-4.1,41.1c-0.7,4.5-2.5,8.5-5.3,12s-6.4,5.2-10.9,5.2c-1.3,0-2.9-0.4-4.7-1.2
		c-1.8-0.8-3.6-1.9-5.2-3.3s-3-3-4.2-4.8s-1.7-3.7-1.7-5.8c0-4.7,0.3-10.4,0.8-17.3s1.2-13.8,1.9-20.7c0.7-6.9,1.4-13.2,2.1-18.9
		c0.7-5.7,1.1-9.6,1.4-11.9c1.7-14.6,3.2-30.3,4.6-47.2c1.3-16.9,2.4-35.3,3.3-55.2c0.1-4.2,0.3-9.9,0.5-16.9s0.4-14.1,0.5-21.2
		c0.2-7.1,0.4-13.8,0.5-19.9c0.2-6.1,0.4-10.5,0.6-13c1.7-27,7.8-40.5,18.2-40.5c2.1,0,4,0.6,5.9,1.8c1.9,1.2,3.6,2.8,5,4.7
		c1.5,1.9,2.6,4.1,3.5,6.5c0.8,2.4,1.3,4.7,1.3,7c0,5-0.5,10.3-1.4,16s-1.9,11.6-3,17.6s-2.1,11.9-3,17.7
		c-0.9,5.8-1.4,11.1-1.4,15.9c0,4.1,0.4,6.1,1.1,6.1c8.5-17.8,16.8-33.5,25-47c8.1-13.5,16.3-24.7,24.4-33.6
		c5.2-5.7,10.4-10.8,15.5-15.6c5.1-4.7,10.2-8.8,15.4-12.3s10.5-6.1,16.1-8.1c5.5-1.9,11.4-2.9,17.6-3.1c4.3-0.1,8.7,1.1,13.2,3.6
		s8.7,6.4,12.3,11.5s6.7,11.3,9,18.6c2.4,7.3,3.5,15.5,3.4,24.7c0.1,7.1-0.8,14.1-2.8,21.2s-4.7,14-8,20.9s-7.2,13.5-11.6,19.8
		s-8.9,12.2-13.7,17.6c10-4.4,20.2-9.8,30.7-16.1c10.5-6.4,21-13.2,31.6-20.6c10.5-7.3,20.9-15,31-22.9
		c10.2-7.9,19.9-15.6,29.1-23.1c2.8-2.3,5-4.2,6.7-5.7c1.7-1.6,3.6-2.3,5.7-2.3c1.7,0,2.7,1,3,2.9
		C358.6,1536.3,358.7,1538.2,358.7,1540.2z"/>
	<path d="M547.7,1556.7c0,2.1-1.3,5.9-4,11.2c-6.3,10.6-13.4,21.2-21.2,31.8s-16.2,20.7-25,30.2s-18,18.5-27.5,26.7
		c-9.5,8.3-19.2,15.4-28.9,21.4c-9.7,6-19.4,10.6-29.1,13.9s-19,4.8-28,4.7c-19.5,0-34.6-6.6-45.3-19.7
		c-10.8-13.1-16.1-33-16.1-59.6c0-22.2,2.9-43.8,8.8-64.7c5.9-20.9,16-41.1,30.2-60.4c2.7-3.4,5.7-6.6,9-9.8
		c3.3-3.1,6.9-5.9,10.6-8.3s7.5-4.3,11.5-5.7c4-1.4,7.9-2.3,11.9-2.5c1,0,2.3,0.1,4,0.4s3.5,0.8,5.5,1.5c1.9,0.7,3.8,1.6,5.7,2.7
		c1.8,1.1,3.3,2.4,4.4,3.9c3.4,4.5,6.1,9.2,8.1,14s3.1,10.1,3.4,15.9c0.2,6.5-0.4,12.9-1.9,19.2c-1.5,6.3-4.1,12.7-7.7,19.3
		c-3.6,6.6-8.3,13.4-14.1,20.4c-5.8,7-12.9,14.5-21.2,22.6c-5.2,5.1-11,10.7-17.4,16.9c-6.4,6.1-14.1,12.6-23.1,19.4
		c0,13.7,3.6,24.1,10.7,31.3c7.1,7.1,16.9,10.7,29.3,10.7c6.9,0,13.9-1.1,21-3.2s14-4.9,20.8-8.4s13.4-7.4,19.8-11.9s12.4-9,18-13.7
		c10.3-8.8,19.7-17.5,28.1-26.2s16.7-17.8,25-27.5l9.8-11.5c6-6.1,10.3-9.1,13-9.1C547,1552.7,547.7,1554,547.7,1556.7z
		 M408.4,1514.5c-0.1-2.1-0.4-4.2-0.8-6.3c-0.4-2-1.1-3.9-1.9-5.4c-0.9-1.6-1.8-2.8-2.9-3.7c-1.1-0.9-2.4-1.4-3.8-1.4
		c-6.4,0.4-12.9,5-19.3,13.7s-12.5,20.2-18.2,34.5c-1.3,3.1-2.5,6.6-3.6,10.5c-1,3.9-2,7.8-2.9,11.9s-1.7,8-2.4,12
		c-0.7,4-1.2,7.5-1.7,10.6c6.3-5.5,12.2-10.6,17.5-15.3c5.3-4.7,10.3-9.5,15-14.4c2.9-3.1,5.9-6.5,8.9-10.1s5.8-7.4,8.3-11.3
		c2.5-4,4.5-8.1,5.9-12.3C407.8,1523.2,408.5,1518.9,408.4,1514.5z"/>
	<path d="M925.8,1555.2c0,1.3-0.2,2.9-0.6,4.9c-0.4,2-1,4.1-1.6,6.4c-0.7,2.3-1.5,4.6-2.4,6.9s-1.9,4.4-3,6.3
		c-2.1,3.7-4.8,7.9-8.1,12.7c-3.3,4.8-7,9.8-11,15s-8.3,10.3-12.9,15.5c-4.6,5.2-9,9.9-13.4,14.1c-3.5,3.4-7.6,7.1-12.2,11.2
		c-4.6,4.1-9.5,7.9-14.6,11.5c-5.1,3.5-10.3,6.5-15.7,8.8s-10.4,3.5-15.1,3.5c-4.3,0-8.1-0.7-11.6-2.1s-6.6-4.1-9.5-8
		s-5.4-9.2-7.6-16s-4.1-15.5-5.7-26.3c-0.7-4.5-1.4-9.4-1.9-14.5c-0.5-5.2-1.1-10.3-1.6-15.4s-1.1-10-1.6-14.7s-1.1-8.9-1.7-12.5
		c-0.7-3.6-1.4-6.5-2.2-8.6s-1.7-3.2-2.6-3.2c-1.6,0-3.8,1.6-6.7,4.7s-6.2,7.6-10,13.5s-8,12.9-12.6,21.1s-9.3,17.4-14.3,27.6
		c-9.8,20.4-18.2,35.8-25,46.4s-13,15.9-18.6,15.9c-8.4,0-14-4.6-17-13.8c-2.7-9.3-4.3-25-4.9-46.9c-0.4-21.3-1.7-37.8-3.9-49.3
		c-2.3-11.5-5.1-17.3-8.7-17.3c-2.2,0-5.4,2.3-9.6,6.9c-4.2,4.6-8.9,10.9-14.2,19s-11,17.6-17.2,28.5c-6.2,11-12.4,22.9-18.6,35.7
		c-1.7,3.4-3.6,7.3-5.8,11.7c-2.2,4.4-4.4,8.8-6.7,13.3s-4.4,8.7-6.6,12.6c-2.1,4-4,7.2-5.6,9.8c-3.5,5.9-7.8,8.9-12.8,8.9
		c-9.2,0-15.3-5.5-18.2-16.5c-0.7-2.8-1.3-5.1-1.7-6.9s-0.8-3.5-1-5.3s-0.4-3.7-0.5-5.8c-0.1-2.1-0.1-4.9-0.1-8.3
		c0-5.7,0.2-10.8,0.5-15.6c0.3-4.7,0.7-9.5,1.2-14.3s1.1-10,1.8-15.5s1.5-11.9,2.2-19.3c0.6-6.1,1.2-12.6,1.6-19.5
		c0.5-6.9,0.9-13.7,1.4-20.3c0.4-6.6,0.8-12.6,1.3-18.1c0.4-5.5,1-9.9,1.7-13.1c0.4-1.7,1.2-3.7,2.6-5.9c1.3-2.3,2.9-4.4,4.7-6.5
		c1.8-2,3.6-3.8,5.6-5.3c1.9-1.5,3.6-2.2,5.1-2.2c2.6,0,4.7,0.7,6.3,2s3,3.1,4,5.4s1.8,4.9,2.2,8c0.4,3,0.6,6.2,0.6,9.4
		c0,3.4-0.3,7.6-0.8,12.7s-1.2,10.6-2.1,16.5c-0.9,5.9-1.8,12.1-2.8,18.4c-1,6.4-2,12.4-3,18.2c-1,5.8-1.9,11.1-2.6,16
		c-0.8,4.9-1.4,8.9-1.7,12c-1.1,7.8-1.8,14-2.2,18.6s-0.5,8.3-0.5,11.1c1.6-1.8,3.6-4.6,6-8.3c2.4-3.7,5.1-8,8-12.9s6-10.4,9.2-16.3
		s6.5-12,9.8-18.2c2.3-4.4,4.9-9.3,7.8-14.8c2.9-5.5,5.8-11.1,8.9-16.6c3.1-5.6,6.2-10.8,9.2-15.8c3-4.9,5.8-9.1,8.4-12.5
		c5.1-6.8,10.4-11.9,15.9-15.5c5.5-3.5,11.2-5.3,17.1-5.3c5.8,0,10.9,2.7,15.2,8s7.2,12.2,8.7,20.7c0.7,4,1.3,8.5,1.7,13.7
		s0.8,10.6,1.2,16.2c0.4,5.7,0.7,11.3,1,17s0.6,11,1,16.1c0.4,5,0.9,9,1.6,12.3c0.7,3.3,1.4,5.8,2.1,7.7c0.7,1.9,1.4,3.3,2,4
		c0.6,0.8,1.1,1.2,1.5,1.2c2.3,0,6.2-5.6,11.7-16.8c2.8-5.7,5.9-11.9,9.3-18.9c3.4-6.9,7.2-14.6,11.3-22.9
		c4.1-8.2,8.6-16.1,13.3-23.8s9.4-14.4,14-20.3s8.8-10.5,12.9-14c4-3.5,7.4-5.2,10.2-5.2c1.8,0,3.7,0.2,5.7,0.6
		c1.9,0.4,3.8,1.1,5.7,1.9c1.8,0.8,3.4,1.9,4.8,3.1c1.4,1.2,2.5,2.5,3.2,3.9c1.8,3.4,3.1,7.2,3.9,11.6c0.8,4.3,1.4,9.3,1.7,14.8
		c0.4,5.6,0.7,11.8,1,18.7c0.3,6.9,0.8,14.5,1.6,22.8c1.7,17.7,4.3,30.9,7.9,39.6c3.6,8.7,8.7,13,15.4,13c2.6,0,5.8-1,9.7-3
		s8-4.6,12.4-7.7c4.4-3.2,8.8-6.8,13.3-10.8s8.7-8,12.6-12c3.9-4,7.6-8,11.2-12c3.6-4,7.2-8.1,10.9-12.3c3.6-4.2,7.4-8.5,11.2-13
		s7.9-9.3,12.3-14.4c1.5-1.7,2.8-2.5,4-2.5C924.9,1549.7,925.8,1551.6,925.8,1555.2z"/>
	<path d="M1155.5,1525.3c0,2.4-0.5,4.8-1.4,7.3s-2.1,4.9-3.6,7.2s-3.1,4.5-4.8,6.6c-1.8,2.1-3.6,3.7-5.4,5
		c-4.3,3.3-10.3,6.1-18.1,8.6c-7.8,2.5-17.5,3.7-29.1,3.7c-9.2,0-18.5-1.4-27.9-4.1c-9.4-2.8-18.4-7.3-27-13.7
		c2.8,5,4.6,9.7,5.4,14.2s1.2,9.9,1.2,16.1c0,11.2-2.4,23-7.3,35.6c-4.7,12.7-10.9,24.5-18.4,35.4s-15.5,19.9-23.9,27.1
		c-4.7,4.1-9.9,7.7-15.6,10.7c-5.7,3-11.6,5.5-17.8,7.4s-12.6,3.3-19.3,4.2c-6.7,0.9-13.4,1.4-20.2,1.4c-4.7,0-9.4-1.8-13.9-5.3
		s-8.5-7.8-12-12.9s-6.4-10.5-8.5-16.3s-3.2-11-3.2-15.7c0-11.5,1.3-22.4,3.9-33c2.6-10.5,6.1-20.7,10.6-30.5
		c4.4-9.8,9.6-19.4,15.4-28.8c5.8-9.4,12-18.8,18.6-28.1c3.6-5.2,7.8-10.4,12.5-15.4s9.6-9.5,14.7-13.5c5.1-4,10.3-7.2,15.5-9.6
		c5.2-2.5,10.2-3.7,15-3.7c3.9,0,7.2,0.6,10,1.9s5.4,3.1,7.9,5.4s5,5.3,7.7,8.8c2.6,3.5,5.6,7.5,9,11.9c1.1,1.3,4.1,3.1,9,5.6
		s10.8,4.9,17.5,7.2c6.7,2.3,13.8,4.4,21.2,6.2c7.4,1.8,14.2,2.7,20.2,2.7c6.1,0,11.7-0.2,16.8-0.7c5.1-0.5,10.1-1.3,14.9-2.4
		s9.6-2.7,14.3-4.7c4.7-2,9.8-4.4,15.3-7.2C1155.2,1521.9,1155.5,1523.8,1155.5,1525.3z M1019.2,1576.2c0.1-4-0.1-8.4-0.7-13.5
		c-0.6-5-1.7-9.8-3.2-14.2c-1.5-4.5-3.5-8.1-6-10.9s-5.6-4-9.2-3.4c-5.6-2.5-10.2-5.2-13.9-8.1c-3.6-2.8-6.4-4.2-8.4-4.2
		c-1.5,0-3,0.5-4.7,1.6s-3.5,2.5-5.3,4.3s-3.7,4-5.6,6.5c-1.9,2.5-3.7,5.1-5.6,7.7c-3.6,5.5-7,10.5-10.1,15.1c-3.1,4.5-6,9-8.8,13.5
		c-2.7,4.5-5.4,9.1-7.9,14c-2.6,4.9-5.1,10.4-7.7,16.4c-1.1,2.5-2.1,5.6-2.9,9.1c-0.9,3.5-1.6,7.2-2.2,10.9
		c-0.6,3.7-1.1,7.5-1.4,11.2c-0.3,3.7-0.5,7.1-0.5,10.1c0,1.8,0.5,4.1,1.6,6.7s2.5,5.2,4.3,7.6c1.8,2.5,3.8,4.6,6,6.3
		c2.2,1.7,4.5,2.5,6.7,2.5c6.2,0,11.5-0.3,15.9-1c4.4-0.6,8.4-1.8,12.1-3.4c3.7-1.6,7.4-3.8,11.2-6.7c3.8-2.8,8.1-6.5,13.1-11
		c2.4-2.1,4.8-4.6,7.2-7.4s4.7-5.8,7-9s4.5-6.4,6.6-9.8c2.1-3.3,4-6.6,5.8-9.9c1.2-2.1,2.2-4.7,3.1-7.8c0.8-3.1,1.5-6.2,2-9.3
		c0.5-3.1,0.8-5.9,1-8.5C1019.1,1579.2,1019.2,1577.4,1019.2,1576.2z"/>
	<path d="M1403.3,1558.2c0,0.7-1.1,3.5-3.4,8.3s-5.4,10.9-9.5,18.1c-4.1,7.3-8.9,15.4-14.5,24.5c-5.6,9-11.7,18.2-18.4,27.5
		c-6.7,9.3-13.8,18.3-21.3,27.1c-7.5,8.8-15.2,16.7-23.1,23.6s-15.9,12.5-23.9,16.6c-8,4.2-15.9,6.3-23.5,6.3c-5,0-9.7-0.8-14.1-2.3
		c-4.4-1.6-8.6-3.7-12.6-6.5s-7.7-6-11.3-9.6c-3.6-3.7-7-7.6-10.3-11.7c-4.4-5.5-8.5-11.1-12.5-16.6c-4-5.6-7.7-10.8-11.3-15.7
		c-3.6-4.9-7.1-9.3-10.5-13.1c-3.4-3.9-6.7-6.9-10-9c-0.2,0.3-0.9,1.1-2.1,2.5s-2.5,3-3.9,4.8c-1.5,1.8-2.9,3.5-4.3,5.3
		s-2.5,3.1-3.2,4.1c-3.2,4.4-5.8,8.4-7.8,12c-2.1,3.6-3.4,6.8-4,9.6c-0.6,2.4-1,5.2-1.2,8.5s-0.3,6.5-0.3,9.8
		c0,5.7-0.3,10.4-0.9,14.2c-0.6,3.8-1.6,6.9-3,9.1c-1.4,2.3-3.3,3.9-5.7,4.8c-2.4,0.9-5.3,1.4-8.8,1.4c-4.4,0-7.1-1.2-8.3-3.7
		c-1.2-2.5-1.7-6.5-1.7-12c0-4,0.2-8.2,0.6-12.7s1-9.1,1.6-13.7c0.7-4.6,1.3-9.2,2-13.7s1.2-8.8,1.7-12.9c1.5-11.3,2.8-22.3,4-33.1
		c1.2-10.7,2.4-21.5,3.6-32.2s2.3-21.6,3.4-32.6s2.2-22.3,3.5-34c1.9-18.2,3.5-36.8,4.6-55.7c1.1-18.9,2-36.4,2.7-52.5
		c0-2.8,0.4-5.7,1.2-8.7c0.8-3,2-5.7,3.6-8.2s3.5-4.5,5.7-6.2c2.2-1.6,4.7-2.4,7.5-2.4c3.6,0,6.6,0.7,8.8,2.1c2.2,1.4,4,3.1,5.2,5.2
		s2,4.1,2.5,6.3c0.4,2.1,0.6,4,0.6,5.5c0,2.4-0.3,6-0.9,10.9s-1.4,10.3-2.3,16.2c-0.9,5.9-1.9,12.1-3,18.5s-2.1,12.3-3.1,17.7
		c-1,5.4-1.8,10.1-2.5,14s-1.1,6.3-1.2,7.3c-2.7,17.1-4.7,31-6.2,41.6s-2.5,18.7-3.1,24.4c-1.8,17.1-3.4,31.7-4.7,43.7
		c-1.3,12-2.5,21.5-3.5,28.4c4.9-6.4,9.9-13,15.1-19.9s10.5-14,15.8-21.1s10.5-14.3,15.7-21.5s10.1-14.3,14.9-21.2
		c2.9-4.4,6.4-9.7,10.3-16c4-6.3,8.2-12.4,12.8-18.5c4.6-6,9.4-11.3,14.4-16s10.1-7.6,15.2-8.7c2.9-0.6,5.5-0.3,7.7,0.8
		c2.2,1.1,4,2.7,5.4,4.8c1.4,2.1,2.4,4.2,3.1,6.6c0.7,2.3,1,4.4,1,6.3c0,3-1.5,6.5-4.4,10.5s-6.5,8.3-10.7,12.7
		c-4.2,4.5-8.7,8.9-13.4,13.5c-4.7,4.5-8.9,8.8-12.6,12.7c-5.5,5.9-10.4,11.5-14.9,16.5c-4.4,5.1-8.5,10-12.3,14.7
		s-7.4,9.4-10.8,13.9s-6.8,9.2-10.2,14c3.9,3,7.5,6.2,10.9,9.8c3.4,3.5,6.9,7.4,10.4,11.6s7.1,8.6,10.9,13.1
		c3.7,4.6,7.8,9.4,12.1,14.3c7.9,9,14.8,15.2,20.6,18.5c5.8,3.3,11.1,4.9,15.9,4.9c5.3,0,11.2-1.9,17.5-5.6s12.8-8.7,19.5-14.8
		c6.7-6.2,13.4-13.1,20.2-21c6.8-7.8,13.4-15.8,19.7-24c6.3-8.1,12.3-16.1,17.9-24c5.6-7.8,10.5-14.8,14.8-21s7.7-11.1,10.4-14.8
		c2.7-3.7,4.3-5.6,4.7-5.6c1.1,0,2,0.5,2.7,1.5s1.3,2.2,1.7,3.6c0.4,1.4,0.7,2.9,0.8,4.5C1403.3,1555.7,1403.3,1557.1,1403.3,1558.2
		z"/>
</g>
<g>
	<g>
		<path d="M-255.3,56.8c3.2,0,3.2-5,0-5S-258.5,56.8-255.3,56.8L-255.3,56.8z"/>
	</g>
</g>
<g>
	<g>
		<path d="M1080.9,490.8c3.2,0,3.2-5,0-5C1077.6,485.8,1077.6,490.8,1080.9,490.8L1080.9,490.8z"/>
	</g>
</g>
<g>
	<path d="M860.5,1262.6c2.5,6.4,51.8,157.1,112.9,190.2c63,33.7,140,13.6,171.6-45.6c30-61.6,8.6-131.7-57-168.6
		c-60.5-33.3-213.5,7.9-219.9,9.8C861.6,1251.4,859.3,1256.1,860.5,1262.6z M1077.9,1257.7c54.3,31,67.4,88,52.1,128.7l-0.6-0.3
		c-0.3,1.7-1,3.3-2.1,4.7c-0.1,0.3-0.2,0.6-0.4,0.9c-0.2,2.4-1.2,4.6-2.9,6.3c-0.1,0.1-0.1,0.3-0.2,0.4c-0.1,0.5-0.2,0.9-0.4,1.4
		c0.1,4.1-2.4,7.8-6.2,9.5c-29.6,38.6-86.6,49.6-133.8,24.1c-40.2-22.3-81.6-119.2-98.3-166.8
		C933.9,1254.3,1037.1,1235.7,1077.9,1257.7z"/>
</g>
<g>
	<path d="M965.6,1339.8c-0.6,0.9-1.7,1.7-3.4,2.2c-1.6,0.5-2.9,0.5-3.8-0.1c-0.2-0.1-0.9-1.4-2-3.7c-4.3-8.6-7.8-15-10.5-19.2
		c-1-1.4-2-3.2-3.2-5.5c-1.2-2.2-2.5-4.9-3.9-8.1c-2.9-6.2-3.9-10-3-11.5c1.8-2.8,5.7-4.5,11.8-5.1c0.6-0.1,1.2-0.2,1.9-0.2
		c0.7-0.1,1.2-0.2,1.4-0.3c2.6-1.1,5.1-1.9,7.5-2.5s5-1.1,7.6-1.7c1.2-0.3,2.6-0.5,4.3-0.8s3.7-0.5,5.9-0.8c4.5-0.5,7.9-1,10.1-1.5
		c0.4-0.1,1.2-0.4,2.6-0.8c0.6-0.2,1.2-0.4,1.7-0.6c0.5-0.1,0.8-0.2,1.1-0.3c0.9-0.3,1.9,0,3,0.7c0.9,0.6,1.5,1.4,1.8,2.4
		s0.1,2-0.5,3c-1.8,2.9-12.2,5.6-31,8c-0.9,0.1-2,0.3-3.2,0.6c-1.2,0.3-2.6,0.7-4.1,1.1c-1.6,0.5-3.3,0.9-5.3,1.4
		c-1.9,0.5-4,1-6.3,1.6c0,0.5,0.2,1.1,0.5,1.9s0.8,1.7,1.4,2.8c1.2,2.2,1.9,3.3,2,3.3c0.2,0.3,0.4,0.7,0.6,1.2
		c0.2,0.5,0.4,1.1,0.6,1.9c0.2,0.8,0.5,1.5,0.7,2.1s0.5,1.1,0.8,1.5c1.6,2.6,3.3,5.2,5,8s3.2,5.3,4.5,7.5c0.5,0.8,1.1,1.7,1.6,2.5
		s1.1,1.7,1.6,2.6C966.9,1335.6,966.9,1337.7,965.6,1339.8z"/>
	<path d="M1068.3,1311.9c-0.7,1.1-3.9,3-9.8,5.9c-1.2,0.6-2.7,1.3-4.5,2.2c-1.8,0.8-3.9,1.8-6.3,3c-2.4,1.1-4.5,2.1-6.4,3
		c-1.8,0.8-3.3,1.5-4.5,2.1c-10,4.8-17.1,8.2-21.1,10.2c-2,1-4.3,2.2-7,3.5s-5.7,2.9-9,4.6c-2.2,1.1-5.2,2.6-9.1,4.5
		c-1.9,1-3.7,1.9-5.5,2.8s-3.4,1.8-5,2.7c-0.9,0.6-1.6,1.1-2.2,1.5c-0.5,0.4-1.2,0.8-2,1.3c-2.6,1.6-5.6,3.2-9,4.8
		c-3.5,1.6-5.4,2.3-5.9,2c-0.8-0.5-1.3-1.5-1.6-2.9c-0.3-1.5-0.1-2.7,0.5-3.6c0.2-0.3,0.7-0.8,1.4-1.4c7.5-5.6,14.7-10,21.6-13.4
		c1-0.5,2.1-1,3.3-1.6c1.3-0.6,2.7-1.3,4.2-2.1c1.6-0.8,2.9-1.5,4.1-2.1c1.2-0.6,2.2-1.1,3-1.5c0.2-0.1,0.5-0.2,0.9-0.4
		c0.4-0.2,1-0.4,1.7-0.7c0.7-0.3,1.3-0.6,1.9-0.9c0.6-0.3,1-0.5,1.5-0.7c1.5-0.8,3-1.6,4.6-2.5c1.6-0.8,3.2-1.7,4.9-2.6
		s3.3-1.7,4.9-2.5c1.5-0.8,3-1.5,4.2-2.1c2.7-1.3,5.5-2.7,8.3-4.2c2.8-1.5,5.6-2.9,8.4-4.3c0.3-0.2,1.1-0.6,2.2-1.2s2.7-1.5,4.7-2.6
		s3.9-2.1,5.7-3c1.8-0.9,3.4-1.6,4.9-2.3c3.1-1.4,6-2.4,8.9-3.2c0.2-0.1,0.6-0.1,1,0c0.5,0,0.8,0.1,1.1,0.3c0.6,0.4,1,1.6,1.2,3.5
		C1068.9,1309.8,1068.8,1311.2,1068.3,1311.9z"/>
	<path d="M1094.3,1387.8c-0.4,0.6-1.6,1.1-3.6,1.5s-4.2,0.7-6.7,1c-1.2,0.1-2.2,0.3-3,0.3s-1.5,0.2-1.9,0.2c-0.8,0-2.2,0.2-4.1,0.6
		c-1,0.2-1.8,0.4-2.4,0.5s-1,0.2-1.1,0.2c-1.9,0.6-5.1,1.6-9.4,3.1c-2.2,0.7-4.1,1.4-5.8,2c-1.7,0.6-3.2,1.1-4.5,1.5
		s-2.6,0.8-3.9,1.1c-1.3,0.3-2.6,0.6-3.9,0.9c-0.9,0.2-1.8-0.1-2.7-0.7c-0.9-0.6-1.5-1.6-1.9-3c-0.3-1.5-0.2-2.7,0.5-3.8
		c0.5-0.8,1.2-1.4,2.1-1.7c0.8-0.3,1.9-0.5,3.3-0.7c0.7-0.1,1.2-0.2,1.7-0.3c0.5-0.1,0.8-0.2,1.1-0.3c3.2-1.2,6.2-2.3,9-3.2
		c2.8-0.9,5.5-1.7,8-2.3c0.8-0.2,1.7-0.4,2.7-0.6s2.1-0.4,3.3-0.6c2.4-0.4,4.6-0.7,6.5-1.1c2-0.4,3.8-0.9,5.6-1.4
		c-0.1-3.8-0.9-7-2.3-9.5c-0.5-0.9-1.1-2.1-1.8-3.5c-0.7-1.4-1.6-3.1-2.5-5.1c-1.9-3.9-3.3-6.7-4.1-8.2c-0.5-0.9-0.9-1.7-1.3-2.4
		c-0.4-0.7-0.8-1.4-1.1-2.1c-0.3-0.7-0.6-1.4-0.9-2.1s-0.5-1.5-0.7-2.3c-0.6-2.9-1-5.3-1.3-7.2c0-0.5,0-1,0.1-1.5
		c0.1-0.6,0.2-1.1,0.4-1.6c0.2-0.5,0.4-1.1,0.6-1.5c0.2-0.5,0.4-0.9,0.6-1.2c0.5-0.8,1.1-1.3,1.8-1.5c0.7-0.2,1.5-0.1,2.2,0.3
		c0.6,0.4,1.1,1,1.5,2.1c0.4,0.9,1,2.6,1.7,5.1c0.4,1.2,0.7,2.1,0.9,2.9c0.2,0.7,0.4,1.3,0.6,1.6c0.7,1.9,1.7,4.2,2.8,7
		c1.2,2.7,2.5,6,4.1,9.7c1.1,2.6,2.1,5,3.2,7.3s2.1,4.5,3.2,6.5c2.6,4.9,4.2,8.2,4.8,10c0.2,0.5,0.2,1.1,0,2
		C1094.9,1386.5,1094.7,1387.2,1094.3,1387.8z"/>
</g>
</svg>
